<svg id="Layer_1" data-name="Layer 1" xmlns="http://www.w3.org/2000/svg" viewBox="0 0 1732.65 357"><defs><style>.cls-1{fill:#fff;}.cls-2{fill:#0192dc;}.cls-3{fill:#0c0c0c;}.cls-4{fill:#060606;}.cls-5{fill:#0e8e4f;}.cls-6{fill:#93cead;}.cls-7{fill:#fdfcfd;}.cls-8{fill:#3f1f35;}</style></defs><title>Untitled-1</title><path class="cls-1" d="M975.36,484.42h27l23.53,40.38,16.55-28.33c2.75-3.62,4.69-8,7.33-12.09h52.28c7,20.34,14.11,40.92,21.75,63.11,6.66-21.86,12.86-42.23,19.2-63.06h27.18l19.38,62.78,21.56-62.46h27.46q-19.32,55.44-38.71,111.11h-19q-11.73-37.22-23.47-74.51L1156,521l-23.17,74.56h-19.23l-38-108.25c-8.91,15.41-17.1,29.57-25.28,43.73a56.92,56.92,0,0,1-3.27,5.7c-7.11,9.55-9.37,20.17-8.42,32,.71,8.79.14,17.69.14,26.9h-25.13c0-12.8-.07-25.56,0-38.31a15.45,15.45,0,0,0-2.27-8.49c-7.12-12-13.87-24.24-20.79-36.37-4.25-7.46-8.5-14.91-12.88-22.29a21.74,21.74,0,0,0-3.3-3.5C975.57,486.26,975.36,485.3,975.36,484.42Z" transform="translate(-93.67 -361.5)"/><path class="cls-1" d="M595.07,596.17c10.21-23.31,20-45.66,29.77-68q8.89-20.47,17.39-41.12a3.94,3.94,0,0,1,4.21-2.78c7.16,0,14.32,0,21.78,0,16,37,31.94,73.95,48.11,111.41H689.42L679.3,572H632.67l-10.43,24c-18.1,0-36-.07-54,0-5.1,0-6.15-4.43-8.33-7.27-8.45-11-16.48-22.29-24.7-33.45a20.45,20.45,0,0,0-2.64-2.48c-4.4,3.13-7,7.58-10.82,11.58v31.19H497.17V484.53h24.68v44.71l41.22-44.8h31.45l-44.07,49.11Zm47.58-46.6H670l-13.7-31.94c-4.49,10.31-8.61,19.75-12.71,29.19C643.23,547.58,643,548.39,642.65,549.57Z" transform="translate(-93.67 -361.5)"/><path class="cls-2" d="M1806,581c1.28-1.48.78-3.26.78-4.92,0-23.06,0-46.12.06-69.18,0-6.32-2.34-9.29-9.07-9.26-38.42.17-76.85.08-115.66.08v-20.3c1.5-.06,3.14-.2,4.78-.2h117.86a21.75,21.75,0,0,1,21.53,21.7q0,42.78,0,85.58c0,12-8.77,20.87-20.68,20.87H1703.15c-11.56,0-19.34-7.79-19.34-19.31,0-19,0-37.89,0-57.33h-29.38V508.33h85.67c5.8,13.56,11.66,27.28,18,42.21,6-14.87,11.56-28.63,17.11-42.37h18l-26.44,66.23h-18.25l-17.31-45.63h-28c.17,18.56-.3,37.16.28,56.18h10.41l86.09,0c2.58,0,5.35.35,5.76-3.36C1806.09,581.52,1806.17,581.32,1806,581Z" transform="translate(-93.67 -361.5)"/><path class="cls-1" d="M807.51,556V484.5h24.92V595.6H806.79L754.64,527V595.6h-25v-111H753Z" transform="translate(-93.67 -361.5)"/><path class="cls-1" d="M938,553.11V484.6h24.88v111H937.37l-52.29-68.77v68.81H860.2V484.59h23.35q26.33,34.28,52.72,68.59l1.87,2.38Z" transform="translate(-93.67 -361.5)"/><path class="cls-1" d="M1301.78,597.09c-34,1-58.76-27.17-58.55-57.45.22-32.73,24.31-58.31,60.08-58.19,33.63.11,58.23,26.86,58.18,58.5C1361.43,569.92,1335.72,598.64,1301.78,597.09Zm-32.13-57.53c.06,20,14.72,35.7,33.25,35.63s33.08-15.91,33-35.86-14.62-35.86-33-36C1284.33,503.26,1269.58,519.31,1269.65,539.56Z" transform="translate(-93.67 -361.5)"/><path class="cls-1" d="M1433.84,597.09c-34.15,1.07-59.63-27.32-58.55-60,.94-28.45,25-55.91,60.18-55.66,30.47.22,59.59,24.74,57.83,61.53C1492,571,1467.33,598.33,1433.84,597.09Zm34-57.68c0-20.14-14.25-35.84-32.81-36.07s-33.28,15.79-33.26,36.13c0,20.18,14.42,35.72,33.06,35.72S1467.79,559.6,1467.82,539.41Z" transform="translate(-93.67 -361.5)"/><path class="cls-1" d="M1514.67,596.27V484c25.19,1.94,51-4.46,74.81,7.8,16.07,8.27,24,22.1,25.7,39.94,1.55,16.41-.81,31.68-11.43,44.93-7.82,9.74-18.29,14.81-30.24,17.38C1554.16,598.17,1534.61,594.81,1514.67,596.27Zm25-22.59c8.87-.2,17.51.79,26.11-.93,15.56-3.11,24.28-13.8,24.8-30.48.59-18.88-7-30.52-22.82-34.68-9.18-2.42-18.52-1.59-28.09-1.59Z" transform="translate(-93.67 -361.5)"/><path class="cls-3" d="M1670,665.68l6-19.8c-3.47-1.55-3.71,4.61-7,2.31,3.65-7.91,8.22-9.73,15.31-5.82.29,1.24.62,2.66,1.09,4.64,5-5.48,10.16-9,17.44-4.87.26,1.82.5,3.46.83,5.77,5.79-4.74,11.15-10.75,19.76-5.48,1.22,6.48-3.64,11.93-3.63,18.38,2.54-.32,4-3.53,6.79-1.68-3.28,6.36-8.63,7.67-15.33,6.29-2.54-6.71,2.38-12.52,2.43-19.9-9.92,3.84-12.32,12.21-15.57,20.13h-8.78c1.77-6.18,4.52-12.23,4.94-20.35-10,4.16-11.86,12.68-15.36,20.38Z" transform="translate(-93.67 -361.5)"/><path class="cls-1" d="M1640.64,463.85l13.48-.78v-7.63c3.16-.51,6-.89,8.75.34a14.07,14.07,0,0,1-.18,7.46l-7.34.56v13.71h18.74v19.83h-19.68V477.82h-14.06V465.1C1640.45,464.68,1640.54,464.27,1640.64,463.85Z" transform="translate(-93.67 -361.5)"/><path class="cls-4" d="M1457.93,665.58c13-12,21-27.23,32-40.91l6.59-.29v36.43l5.77,3.29c-7.73,3.61-15.08.63-22.92,2.32,3.12-5.25,11.16-7,6.74-14.62h-11.31c-2,2.46-4.86,4.82-4.31,9,.61,1.69,4.24,1.52,2.74,4.8Zm28.81-30.49L1477.41,648h9.33Z" transform="translate(-93.67 -361.5)"/><path class="cls-3" d="M1512.74,625h13.14c-1.72,5.75-3.39,11.3-5.27,17.56,2.23-.75,3.92-1.48,5.68-1.9,8.28-2,13.91,3.84,11.65,12-3,10.67-16.14,17.51-26.28,13.12-5.18-2.25-4.69-7.46-3.72-12,.85-4,2.59-7.72,3.78-11.62s2.21-7.89,3.45-12.38C1515.14,628.22,1509.68,629.09,1512.74,625Zm15.39,21c-3.32-1.7-5.83-.86-7.49,1.66-3.05,4.61-5.94,9.39-4.21,15.2,3.8,1.83,6.63.72,8.51-2C1528.07,656.41,1530.36,651.54,1528.13,646Z" transform="translate(-93.67 -361.5)"/><path class="cls-3" d="M1754.35,641.53h8.6c-2,6.8-3.89,13.28-5.75,19.65,3.52,1.75,3.16-3.82,6.47-2.07-1.57,5.27-5.36,7.7-10.58,7.71-4.22,0-5.21-3-4.62-7.38-4.84,4-8.67,9.2-15.93,6.68-1.7-7.26,2.7-13.6,3.87-20.49-3.76-1.14-3.64,4.48-7.37,2.61-.64-2,2.72-3,2.65-5,3.47-2.33,7-2.14,11.39-1.87,5.93,6.53-2.07,12.59-1.34,19.63C1749.32,656.43,1750.43,647.86,1754.35,641.53Z" transform="translate(-93.67 -361.5)"/><path class="cls-3" d="M1549.85,645.52c-3.6-.62-4,4-7.4,3.21,1.71-7.51,7.25-7.94,14.18-7.26,5.7,6.55-2.34,12.61-1.49,19.5,7.74-4.45,8.64-13.24,12.69-19.55h8.52c-2,6.84-3.87,13.42-5.73,19.84,3.51,1.53,3.17-4,6.53-2.12-1.72,5.25-5.5,7.72-10.8,7.67-4.26,0-4.94-3.23-4.55-7.54-4.76,4.43-8.71,9.32-15.85,6.84C1544.35,658.78,1548.56,652.4,1549.85,645.52Z" transform="translate(-93.67 -361.5)"/><path class="cls-3" d="M1614.13,663c.65-5.93,4.42-10.63,4-17.63-7,6-9,13.7-12.84,20.43h-8.45l6.07-19.88c-3.44-2.61-3.52,4.8-6.88,2.23,4-7.86,8.85-9.81,14.75-5.63.15,1.46.32,3.11.61,6,3.65-4,6.47-8.17,11.8-8.12,1.88,0,3.44.91,5.14,2.65.3,6.31-4,12-4.09,18.74,2.48-.83,3.59-4.46,6.76-2.65C1627.21,666.51,1619.23,668.35,1614.13,663Z" transform="translate(-93.67 -361.5)"/><path class="cls-3" d="M1665.5,640.62c-2.24,7.44-4.1,13.63-6,19.8,2.61,1.83,3.82-3.48,6.7-.92-1.64,5-5.54,6.92-10.56,7.37-3.62.33-4.48-2.2-5.12-5.46a51,51,0,0,1-5.77,4.31c-2.39,1.3-5.44,2.43-7.48.09-1.85-2.11-3.76-4.82-2.22-8.19,1.72-3.76,2.21-7.85,5.09-11.37C1647.31,637.56,1656.79,643.63,1665.5,640.62Zm-11.77,3.53c-6,1-10.53,10.53-8.15,16.58C1651.07,659.25,1654.89,651.68,1653.73,644.15Z" transform="translate(-93.67 -361.5)"/><path class="cls-3" d="M1771.93,657.84h6l2.36,4.1c-1.14,4.51-4,5.5-8.19,4.51l-2.37-3.94Z" transform="translate(-93.67 -361.5)"/><path class="cls-3" d="M1793.54,666.43c-.72-1.23-1.46-2.48-2.32-3.92l2-4.29a10.25,10.25,0,0,1,6.35-.16l2.15,4C1800.49,666.58,1797.54,667.46,1793.54,666.43Z" transform="translate(-93.67 -361.5)"/><path class="cls-3" d="M1812.68,662.49l2.3-4.61h5.92l2.39,4c-1,4.53-3.9,5.56-8.15,4.64Z" transform="translate(-93.67 -361.5)"/><path class="cls-5" d="M975.36,484.42c0,.88.21,1.84-.9,2.27-.16-.45-.33-.9-.61-1.67Z" transform="translate(-93.67 -361.5)"/><path class="cls-6" d="M1640.64,463.85c-.1.42-.19.83-.29,1.25C1639.69,464.51,1639.82,464.1,1640.64,463.85Z" transform="translate(-93.67 -361.5)"/><path class="cls-7" d="M1806,581c.14.28.06.48-.26.6A6.39,6.39,0,0,1,1806,581Z" transform="translate(-93.67 -361.5)"/><path class="cls-8" d="M294.16,362.46c-1.41.79-2.61,1.56-3.89,2.15-3.84,1.76-6.6,4.77-9,8.46-8.55,13.29-13.46,28.19-17.23,43.8-6.53,27-9.34,54.57-11.69,82.29-2.31,27.14-1.92,54.31-2.29,81.48,0,2.55.21,5.12.4,7.67.16,2.06-.46,3.5-2.28,4.36-1.67.79-3.25,1.79-5,2.79-.51-3.57.07-7.06-.67-10.66-1.94.26-3.75.41-5.52.78-1.32.26-1.22,1.55-1.2,2.65.05,3,.14,6,.17,9.06,0,1.94-3.63,5.61-5.36,5.4-1.18-.13-1.13-1.17-1.14-2.07,0-3.66-.06-7.32,0-11,0-3.46-.17-3.68-3.23-3.47-9.69.69-19.37,1.42-29.07,2-2.18.13-2.63,1.08-2.52,3.25.47,8.86.82,17.73,1.18,26.6.09,2-3.38,5.37-5.16,5-1.05-.19-1.2-1.19-1.24-2.1-.13-2.28-.08-4.58-.28-6.86-.13-1.51.64-3.69-2.07-3.71-2.56,0-3,1.33-2.84,3.78.23,3.09.18,6.22.24,9.33,0,1.9-2.7,4.71-4.36,4.48-1.4-.2-1.32-1.39-1.35-2.5-.32-10.34-.68-20.68-.94-31-.57-22.88-.51-45.76.47-68.63.53-12.14,1-24.26,2.46-36.37,1.74-14.69,3.34-29.4,5.64-44a251.4,251.4,0,0,1,9.49-40.3,135.08,135.08,0,0,1,11-24.58,32.26,32.26,0,0,1,10-11A21.65,21.65,0,0,1,228,365.93c19.23-1.08,38.44-2.33,57.66-3.55a47.46,47.46,0,0,0,4.71-.73A4,4,0,0,1,294.16,362.46Zm-65,191.17c.09-.76.19-1.52.26-2.29.2-2.19.19-4.39.18-6.59l-.07-12.92c0-.91-.08-2-.78-2.47a2.33,2.33,0,0,0-1.56-.25c0,.43-26.48,1.89-29,2-2.32.13-3.26,2-3.3,4.34l-.62,44.07a2.88,2.88,0,0,0,.46,2,2.33,2.33,0,0,0,2.15.45,292.29,292.29,0,0,1,29.25-2.32c1.12,0,2.5-.23,2.93-1.37a3.76,3.76,0,0,0,.09-1.57c-.42-4.78-.41-9.6-.4-14.41,0-2.17,0-4.35.21-6.5C229,555.08,229.1,554.35,229.2,553.63Zm3.17-73.07c-2.13.21-4,.44-5.92.56-8.51.55-17,1.12-25.53,1.56-1.86.1-2.65.74-2.79,2.86-.82,12.22-1.92,24.41-2.51,36.64-.11,2.29.73,2.81,2.61,2.81,9.71,0,19.3-1.66,29-2.33,2.37-.16,2.55-1.84,2.69-3.74.67-9,1.42-18,2-27.06C232.09,488.17,232.76,484.48,232.37,480.56Zm6.17-42.07a6.79,6.79,0,0,0-1.47-.26c-10,.69-20,1.46-30,2-2.41.14-3.34,1.26-3.67,3.76-1.36,10.22-2.83,20.43-4.33,30.63-.26,1.79.26,2.39,1.82,2.19,10.23-1.3,20.56-.8,30.78-2.23,1.48-.2,2.34-.74,2.33-2.5,0-6.46,1.47-12.68,2.38-19C237,448.29,237.79,443.46,238.54,438.49Zm-1.8-6c2.22.77,3.17-.6,3.6-2.76,1.83-9,4.2-17.87,6.87-26.63.58-1.92,0-2.58-1.72-2.47-9.77.62-19.55,1.26-29.32,1.86a3.76,3.76,0,0,0-3.73,3c-2.6,9-5.05,18-6.84,27.22-.31,1.6,0,2.19,1.56,2.09,4.67-.3,9.35-.55,14-.72C226.39,433.89,231.52,433.08,236.74,432.48ZM215.25,396.8a1.82,1.82,0,0,0,1.76.75c8.92-.55,17.85-1.05,26.76-1.68,6-.43,6.1-.48,8.6-6.51,3.3-8,7.21-15.45,13.31-21.31a1.2,1.2,0,0,0,.36-1.4c-1.47-.64-3,.29-4.5.34-8.44.31-16.87.78-25.3,1.2-2.11.1-4.11.46-5.76,2.19C223.38,377.84,219.82,387.67,215.25,396.8Zm20.47,175.31h0c0,.55,0,1.1,0,1.64-.17,5.81-.16,5.78,5.15,5.14,1.5-.18,2-.95,2-2.46,0-3.19-.05-6.38,0-9.56,0-1.53-.6-2-2-2-5.13.27-5.13.23-5.1,5.86Zm7.16-20v-.82c0-5.86,0-5.82-5.15-5.33a1.79,1.79,0,0,0-1.86,2c-.07,2.92-.14,5.85-.2,8.77,0,1.32.48,1.92,1.8,2,5.29.16,5.41.07,5.41-5.78Zm.12-18.59h.11v-3.84c0-.78-.14-1.42-.92-1.73-3-1.22-5.62.52-5.83,3.92-.07,1.19-.19,2.37-.26,3.56-.27,5,.62,5.72,5,4.15a2.5,2.5,0,0,0,1.87-2.77C243,535.72,243,534.62,243,533.52Zm-5.8-16.66c-.35,5.58.74,6.68,4.8,4.89a2.76,2.76,0,0,0,1.84-2.62c.08-2.17.18-4.35.24-6.53,0-.89-.17-1.79-1.17-1.67-1.72.2-3.64.16-5,1-1.24.76-.38,2.86-.61,4.35C237.22,516.5,237.22,516.68,237.2,516.86Zm-49,78.89c0-1.57,0-2.94,0-4.31.06-2.17-1.2-2.19-2.67-2.15s-2.3.63-2.18,2.47q.35,4.9.45,9.83c0,1.57.24,2.71,2,2.59s3-.64,2.77-2.91C188.46,599.37,188.35,597.46,188.22,595.75Zm0-20.38h0c0-1.37.07-2.74,0-4.1-.07-1.14.48-3-1.46-2.69-1.58.23-3.73-.06-3.55,3,.16,2.72.15,5.47.07,8.2-.06,1.9.39,2.92,2.35,2.83,1.79-.08,2.87-.59,2.65-2.86C188.11,578.29,188.22,576.82,188.22,575.37ZM238,504.68c1.21.68,2.23.35,3.21.46,2.28.25,3.46-.82,3.52-3.37,0-.72.2-1.43.27-2.16.43-4.84.42-4.81-4.07-4.34-1.15.12-2.22.16-2.35,1.77C238.33,499.56,238.15,502.08,238,504.68Zm-49.73,51.23h0c0-1.1.07-2.2,0-3.29s.52-2.84-1.4-2.84-3.4.4-3.47,2.91,0,4.94-.21,7.39c-.17,2.16.66,2.56,2.47,2.58,2.05,0,2.7-.88,2.6-2.92C188.18,558.47,188.22,557.18,188.22,555.91Zm57.86-76-4.32-.23a1.31,1.31,0,0,0-1.54,1.07c-.32,2.66-1.14,5.26-1.1,8.07,1.89.57,3.63-.06,5.35,0,.81,0,1.08-.69,1.13-1.51C245.74,484.9,245.9,482.54,246.08,479.86Zm-61.77,41.81c0,.05,0,.6,0,1.15-.08,3,.81,3.76,3.44,2.87a2.25,2.25,0,0,0,1.63-2.16c.13-1.92.3-3.83.33-5.75,0-1.29.37-3-1.6-3-1.76,0-3.41.34-3.56,2.85C184.47,518.8,184.4,520,184.31,521.67Zm-.64,21.24c3.62,1,4.29.89,4.62-.88.65-3.37.36-6.78.52-10.44-1.84.56-4.11-.92-4.55,1.67A86.63,86.63,0,0,0,183.67,542.91Zm60-68.89c.91-.26,2.42.44,3.07-.8a13.17,13.17,0,0,0,1-7.38c-.17-1.7-2.45-.43-3.75-.74-1.68-.4-2.22.58-2.32,2.23a26.3,26.3,0,0,1-.48,3.76C240.54,474.08,240.61,474.2,243.62,474ZM243,457.54c0,.71-.25,1.46.54,1.91,1.75,1,5.17-.89,5.48-3.06.08-.54.17-1.08.27-1.61.86-4.23.29-4.81-3.67-3.89a2.59,2.59,0,0,0-2.19,2.56C243.35,454.82,243.19,456.18,243,457.54ZM186.83,489c-.24,3.54.24,4.13,2.78,3.61a2.15,2.15,0,0,0,1.81-2.23c.14-1.46.36-2.9.57-4.35.43-2.87.09-3.19-2.52-3-1.64.13-2.45.82-2.43,2.68C187.06,486.84,186.9,487.94,186.83,489Zm4,12.14c.12-1.42.05-2.61-1.71-2.52-1.52.07-3.35-.54-3.46,2.19-.08,2-.19,4-.29,6-.07,1.48.43,2.15,1.92,1.92a3.07,3.07,0,0,0,3-3C190.49,504.22,190.7,502.7,190.88,501.17Zm54-56.08c5.45.92,6.22.29,6.8-5,.13-1.11.49-2.54-.91-2.57s-3.68-.83-4.53,1.11S245.35,442.81,244.9,445.09Zm2.59-13.52c4.44,1.38,5.5.74,6.55-3.82.26-1.14,1.1-2.65-.58-3.22s-3.31-.62-4.17,1.27A18.31,18.31,0,0,0,247.49,431.57Zm-51.93,24.74c.15-2.1-.73-2.62-2.44-2.08-2.8.88-2.83,3.39-3,5.88-.07,1.19-.87,2.66,1,3,1.6.31,3-.15,3.58-2A47.5,47.5,0,0,0,195.56,456.31Zm55-37.31a12.32,12.32,0,0,0,1.39.26c3.29.13,5.7-2.59,5.57-6.21a1.24,1.24,0,0,0-.75-1.25,4.16,4.16,0,0,0-4.88,2A14.15,14.15,0,0,0,250.59,419Zm-62.41,58.07c4,1,4.25.86,4.76-3.07.15-1.08.31-2.16.54-3.22s.4-2.39-1.11-2.3c-1.32.07-3.27-.91-3.61,1.62C188.45,472.41,188.36,474.76,188.18,477.07Zm9.74-35.77c-4.71-1.13-6.6,1.26-5.87,7.24C197.73,449,196.59,449.08,197.92,441.3Zm-1.87-5.7c2.76,0,3.31-.67,4-4.7.21-1.25.39-2.47-1-2.92s-2.73-.3-3.35,1.4c-.5,1.33-.83,2.75-1.22,4.13C194.07,435.1,194.68,435.75,196.05,435.6Zm7.37-20.12c-3.4-.89-4.56-.14-5.55,3.48-.36,1.3-1.36,3,.62,3.7s3.32-.09,3.9-2.23C202.81,418.87,203.06,417.26,203.42,415.48Zm3.39-11.87c-3.82-.67-6.19,1.34-6.37,5.25-.05,1.16.58,1.32,1.42,1.35C204.87,410.33,206.52,408.2,206.81,403.61Zm47.39,2.49c3.45,1.62,6.73-.81,6.55-4.8-.07-1.35-.85-1.35-1.74-1.3C256.08,400.17,255,401.53,254.2,406.1ZM259.64,395c2.56.08,3.88-1.14,5-4.74.19-.64.75-1.29.11-2s-1.39-.51-2.11-.33c-1.78.47-4.15,3.6-4.31,5.64C258.25,394.56,258.55,395.19,259.64,395Zm-54.88,2.73c3.49,1.67,5.63-.36,6.35-6C206.68,391.21,206,392.44,204.76,397.76ZM271,377c-3.16-1.07-7,1.72-7.09,4.8-.05,1,.5,1.33,1.45,1.25C268.72,382.78,269.53,379.77,271,377Zm-54.53,3.26c-3.53-.27-6.11,2.13-6.87,6.22C213.29,387.11,216,384.75,216.44,380.29Zm-.12-5.55c3.39,1.2,6.9-1.17,9.36-6C221.64,369.22,219.08,371.68,216.32,374.74ZM279.8,366a7.63,7.63,0,0,0-8.69,5.74C275.24,372.22,276.8,368.16,279.8,366Z" transform="translate(-93.67 -361.5)"/><path class="cls-8" d="M258.45,527.72a21.12,21.12,0,0,1,6.08,3.65c1.57,1.17,2.42.92,3.32-.92,2.36-4.86,2.42-4.82-2-7.36a34,34,0,0,0-3.74-2.22c-3-1.25-3.85-3.6-3.52-6.91.29-3,.78-3.33,3.26-1.79,2.83,1.76,5.7,3.46,8.47,5.35,1.74,1.18,2.71,1,3.65-1.14q6.51-14.67,13.23-29.23c.73-1.59.5-2.39-.95-3.22-7-4-14-8.15-21-12.19-3.44-2-3.65-2.53-2.73-6.69.41-1.81,1.14-2,2.48-1.21,2.12,1.28,4.3,2.46,6.39,3.8s2.67-.19,3.49-1.66c.91-1.64.17-2.49-1.15-3.2-2.4-1.29-4.77-2.64-7.14-4a6.69,6.69,0,0,1-1.86-1.34,4.36,4.36,0,0,1-.59-5.5c1.17-1.82,2.6-.49,3.78.19,22.78,13.12,45.39,26.57,67.27,41.46,27.6,18.77,54.21,39,78.43,62.84,10.87,10.68,20.93,22.15,28.91,35.61a58,58,0,0,1,7.68,19.23,24.66,24.66,0,0,1-1.83,15.17q-11.67,25.34-23.26,50.71c-1.5,3.26-2.86,6.6-4.29,9.9a27.15,27.15,0,0,1-3.14,5.77,3.72,3.72,0,0,1-.33-3.42c1.22-4,.22-7.79-.83-11.55-1.83-6.55-5-12.32-8.58-17.89-9-14.18-20.33-26-32.08-37.33-22-21.11-45.91-39.4-70.74-56.28-14.2-9.65-28.48-19.16-43.25-27.76C257.42,536,256.6,533.37,258.45,527.72ZM294,488.5a7.88,7.88,0,0,0-2.23,3.44c-3.91,9.09-8,18.1-12.39,26.91-1.24,2.49-.74,3.56,1.36,4.9,11.86,7.51,23.71,15,35.27,23.09.47.33.91.84,1.68.6a10.44,10.44,0,0,0,1.95-3c4.2-9.24,8.37-18.49,12.65-27.69.88-1.88.59-2.92-1.06-4-6-3.81-11.92-7.75-17.88-11.63Zm76,53.61a11.81,11.81,0,0,0-3.31-3.45c-8.58-6.85-17.51-13.13-26.29-19.67-1.91-1.43-2.6-.82-3.49,1.18-4.2,9.45-8.42,18.88-12.85,28.19-1.18,2.47-.72,3.54,1.25,5,9.15,6.74,18.46,13.24,27.27,20.51,1.91,1.57,2.69.45,3.42-1.14Q363,557.43,370,542.11Zm15.47,59.44c.44-.91.88-1.78,1.29-2.67,4.25-9.32,8.43-18.67,12.8-27.92,1-2,.9-3.16-.69-4.66-7.21-6.82-14.89-13-22.31-19.57-1.63-1.44-2.57-1-3.41,1-4.07,9.62-8.47,19.06-13.05,28.4-.86,1.76-.72,3,.8,4.21,7.73,6.28,14.94,13.26,22.36,20A3.14,3.14,0,0,0,385.44,601.55Zm25.29,27.29c4.76-10.32,9.66-21,14.6-31.64.75-1.63-.15-2.54-1.05-3.54q-8.7-9.69-17.41-19.39c-.68-.76-1.28-1.7-2.4-1.8-.18.34-.37.64-.52,1-4.67,10.21-9.1,20.56-14.17,30.54a2.56,2.56,0,0,0,.6,3.35C397.12,614.43,403.85,621.55,410.73,628.84Zm18.82-28.27a4.36,4.36,0,0,0-1.79,2.16c-4.16,9.15-8.26,18.33-12.57,27.4-1.3,2.73-1.07,4.7.56,7.19,5.29,8.09,10.67,16.2,11.78,26.53,0,.13.24.23.45.41.77-.47,1-1.41,1.33-2.18,3.5-7.57,7-15.17,10.45-22.74,4.19-9.08,4.2-9.08,1-18.61C438.18,613.27,433.63,607.19,429.55,600.57ZM275.61,529c-1.41.94-1.63,2.51-2.35,3.71-1.17,1.95-.8,3.34,1.09,4.45s3.91,2.46,5.81,3.8c1.52,1.07,2.69,1.58,3.83-.69,1.87-3.73,2-4.84-.19-6.27C281.15,532.29,278.41,530.72,275.61,529Zm16.05,10.3c-1.9.47-1.82,2.47-2.63,3.74-1.21,1.91-.61,3.09,1.13,4.1s3.28,2.17,4.9,3.29c2.7,1.86,2.8,1.86,4.11-1.33,1.63-4,2.52-3.53-1.86-6.41-1.36-.89-2.71-1.79-4.09-2.64A13.93,13.93,0,0,0,291.66,539.32Zm19.84,22.19c3.88-6.32,3.86-6.42-1.42-10.09-.84-.59-1.71-1.12-2.54-1.73-1.39-1-2.29-.61-2.89,1-.34.92-.74,1.82-1.14,2.73a2.18,2.18,0,0,0,.75,3C306.65,558.11,309,559.78,311.5,561.51ZM293.18,474c-3-1.73-5.76-3.35-8.54-5-3.61-2.14-3.61-2.15-5.36,2a3.33,3.33,0,0,0,0,1.05l7.11,4.32C290.76,479.05,290.76,479.05,293.18,474Zm31.54,96.69c.68-1.45,1.26-2.64,1.82-3.85.4-.88,1.11-1.89.42-2.78-1.84-2.39-4.37-3.83-6.77-5.42a.84.84,0,0,0-.7.07c-2.19,1-2.72,6-.79,7.51S322.55,569.11,324.72,570.72Zm-25.85-93c-1.46.58-1.54,2.25-2.25,3.38-.6,1,.2,1.51.82,1.93,2.49,1.64,5,3.23,7.5,4.86,1.09.71,2.15,1.27,2.8-.51.53-1.45,2.15-2.95-.13-4.34-2.54-1.55-5.05-3.16-7.57-4.73C299.68,478.07,299.29,477.91,298.87,477.7Zm33.78,90c-1,1.78-1.8,3.22-2.56,4.71a1.77,1.77,0,0,0,.29,2.24c2,1.6,3.73,4.28,6.16,4.23,1.73,0,2.19-3.1,3.25-4.78.08-.11,0-.33,0-.68C337.8,571.25,335.16,569.86,332.65,567.68Zm-8.71-73a2.83,2.83,0,0,0-1.43-2c-2.06-1.36-4.13-2.7-6.18-4.08-1.32-.88-2.28-.64-3.08.86s-1.21,2.77.5,3.88c2,1.29,3.93,2.72,5.92,4,.73.48,1.57,1.57,2.4.61A17.85,17.85,0,0,0,323.94,494.65Zm20.84,82.66c-3.42,3.35-3.41,5.66,0,8.41,1.18,1,2.38,1.9,3.57,2.85,3.67-5.46,3.62-5.92-1.06-9.47C346.43,578.48,345.59,577.89,344.78,577.31Zm-15.53-80.1c-.34.59-.58,1-.8,1.35-1.75,3.16-1.7,3.28,1.24,5.26,1.43,1,2.82,2,4.21,3,.94.69,2,1.52,2.71-.06.64-1.35,2.05-3,.28-4.35C334.45,500.52,331.82,498.94,329.25,497.21Zm26.57,88.85c-.82,1.68-1.51,3-2.14,4.42a2.12,2.12,0,0,0,.4,2.72c1.39,1.16,2.8,2.29,4.21,3.43.7.55,1.21.2,1.73-.39,2.4-2.76,2.28-4.77-.46-7.07C358.37,588.17,357.17,587.18,355.82,586.06ZM351,512.89c-2.43-2.5-5.28-4.13-7.88-6.19-2.56,4.63-2.56,4.63,1,7.31l1.45,1.09c3.16,2.34,3.17,2.34,5.13-1.39A8,8,0,0,0,351,512.89Zm15.54,82.44c-3.76,4.89-3,7.6,2.78,10.57,1.1-1.14,1.57-2.73,2.39-4.08a1.45,1.45,0,0,0-.29-2.11C369.86,598.29,368.28,596.85,366.58,595.33Zm-10.18-79c-.69.93-1.29,1.77-1.93,2.58a1.65,1.65,0,0,0,.23,2.58c2.05,1.65,3.94,3.58,6.39,4.66a15.37,15.37,0,0,0,2.44-4.4Zm11.83,9.1c-2.93,4-2.92,4,.48,6.79.66.54,1.29,1.14,2,1.68,2,1.63,2.75,1.32,3.5-1.26a3.2,3.2,0,0,0-1.28-3.74C371.4,527.72,369.87,526.63,368.23,525.41Zm8.23,78.87c-3.09,5.76-2.29,8.43,2.81,10.22,3-4,2.92-4.64-.44-7.93C378.09,605.84,377.34,605.13,376.46,604.28Zm1-65.49c2.09,1.94,4,3.69,6,5.62.91-2.06,3.33-3.4,1.3-5.69a50.13,50.13,0,0,0-5.25-4.53Zm12.62,4.75c-.8,1.48-1.54,2.83-2.36,4.33,2.06,1.79,3.79,3.71,6.14,5.09.7-1.88,2.74-3.3,1.47-5.05A14.93,14.93,0,0,0,390.07,543.54ZM385.72,614c-3.17,4.83-2.79,6.36,2.28,9.48C392.24,619.22,389.62,616.65,385.72,614Zm14.59-61.68c-2.84,3.83-2.81,4.31.22,7.2a5.68,5.68,0,0,0,.57.53c.95.72,1.81,2.33,3.11.69a3.31,3.31,0,0,0,.1-4.44C403.09,554.81,401.66,553.59,400.31,552.27Zm-5.55,70.4c-3.12,3.27-3.17,4.43-.53,7.89.79,1,1.6,2.6,2.95,1.3,1.12-1.07,2.3-2.58.92-4.49C397,625.82,395.88,624.25,394.76,622.67Zm19.56-55.85c-.05-1-3.49-4.84-4.3-4.91s-1,.42-1.41.94c-2,2.72-.11,4.26,1.43,5.95.7.78,1.35,2,2.45,1.33S413.9,568,414.32,566.82ZM402.46,633c-2.53,3.75-2,6.11,1.94,9C407.39,639,406.73,636,402.46,633Zm18.05-53.39c3-3.59,3-3.94-.26-7.2-.67-.68-1.35-2.05-2.43-1-.89.89-1.78,2.23-1,3.61A12.08,12.08,0,0,0,420.51,579.64Zm6.2.18c-2.6,3.4-2.64,3.86-.34,7,.66.91,1.24,2.7,2.62,1.63a3.38,3.38,0,0,0,.92-4.55A15.7,15.7,0,0,0,426.71,579.82Zm7.37,9.66c-2.82,4.48-2.69,5.35,1.44,9.34C438.54,595.62,438.38,594.58,434.08,589.48Zm-16.42,73.38c2.71-3.75,2.45-6-1.1-9.84C413.94,657.52,414,658,417.66,662.86Zm-6.18-11.24c2.69-3.28,3-4.38-1.45-9C407.18,646,407.64,648.94,411.48,651.62Zm30.17-41.88c3.08-2.53,2.57-5.09-.92-9.09C438.32,603.49,438.41,604.47,441.65,609.74Zm-19.08,55.51c-2.81,3-2.82,6.8-.37,11.6C425.29,673.18,422.7,669.5,422.57,665.25Zm23.11-52.72c-1.53,4.89-1.45,7,.36,10.94C448.23,620.54,448.16,616.27,445.68,612.53Z" transform="translate(-93.67 -361.5)"/><path class="cls-8" d="M303.81,575.29c-1,2.84-3.4,3.54-5.4,4.71-1.77,1-2.08,1.82-.71,3.67,3.06,4.13,3,4.21,7,1.39,1.06-.74,2.11-1.47,3.18-2.2,3.89-2.65,6.15-2.11,9,2.17-.25,1.12-1.23,1.39-2,1.88-3,2-6,3.91-9.09,5.82-1.26.78-1.65,1.71-.79,3.1q8.68,13.95,17.34,27.91c1,1.62,2,1.13,3.16.3,6.76-4.73,13.54-9.42,20.31-14.13,2.06-1.43,6.11-.28,7.21,2.05.51,1.09-.27,1.49-.89,1.91-2.27,1.55-4.55,3.09-6.86,4.55-1.22.78-1.79,1.56-.74,3,.91,1.26,1.49,3.15,3.46,1.7,2.71-2,5.38-4,8.11-6,1.53-1.09,5.53,1,5.7,3,.11,1.23-.9,1.64-1.66,2.16-8.1,5.48-16.2,11-24.33,16.43-31.23,21-63.36,40.1-97.12,55.77C223.49,701.61,208,708,192,712.5a207.6,207.6,0,0,1-28.35,5.65,48.43,48.43,0,0,1-18.69-1.49c-5.79-1.51-10.26-5.2-13.56-10.58q-6.91-11.28-13.79-22.58c-7.66-12.55-14.92-25.38-22.93-37.67a4.24,4.24,0,0,1-1-2.19c.59-.64,1,.05,1.22.35,4.75,5.85,11.23,7,17.78,7.46,12.07.92,23.84-1.47,35.47-4.68,36.89-10.2,71-27.77,104.46-47.12,13.9-8,27.58-16.49,40.84-25.73C298,570.71,299.34,570.92,303.81,575.29Zm-45.23,46.82c6.14,10.13,12.12,19.93,18.05,29.77,1.05,1.74,2.17,1.21,3.43.44,5-3,9.95-6,14.9-9.05q10.68-6.62,21.32-13.33c.86-.54,2.27-1,1.24-2.61q-8.68-14.08-17.39-28.18c-.84-1.36-1.73-1.38-3-.6C284.51,606.54,271.83,614.49,258.58,622.11ZM218.69,643.4c5.11,8.46,10.08,16.78,15.13,25.05,4.56,7.46,2.64,6.42,9.78,3.26a278.3,278.3,0,0,0,27-14.3c1-.6,2.28-1.1,1.2-2.83l-17.27-27.91c-.83-1.35-1.84-1.27-3.05-.64C240.7,631.77,229.89,637.48,218.69,643.4Zm14.13,33.66c-6.32-10.37-12.35-20.24-18.35-30.13-.85-1.4-1.84-1.22-3-.63-8.92,4.38-18,8.23-27.26,11.76-1.72.66-1.76,1.48-.84,3q8.32,13.71,16.55,27.48c.75,1.25,1.64,1.7,3,1.17,4.47-1.75,9-3.34,13.45-5.23C221.73,682.18,227.09,679.65,232.82,677.06Zm-37,14.76a5.91,5.91,0,0,0-.31-1.17q-8.78-14.37-17.54-28.73c-.84-1.38-1.83-1.23-3.05-.78a103.78,103.78,0,0,1-13.2,4.31c-4.56,1-9.1,2.1-13.7,3.16a4.77,4.77,0,0,0,.22,1q8.65,14.45,17.33,28.88a3.05,3.05,0,0,0,3.91,1.47c4.69-1.35,9.42-2.51,14.11-3.8A75.18,75.18,0,0,0,195.85,691.82Zm-34.73,9.72a3.31,3.31,0,0,0-.74-2.76c-5-8.35-10-16.65-14.94-25-1.8-3.1-4.05-4.25-7.39-3.6a39.57,39.57,0,0,1-14,.65c-4.16-.66-8.45-.57-12.49-2.62a11.52,11.52,0,0,0,1.33,3c4.54,7.57,9.4,14.94,13.54,22.76,2.92,5.53,7.16,7.55,12.48,8.11,1,.1,2,.24,3,.31A106,106,0,0,0,161.12,701.54ZM280.68,591.66c4.32,7.63,3.46,6.8,9.15,3,6.09-4,6.3-2.31,1.55-9.45-.09-.13-.28-.18-.51-.31ZM265.34,601c1,1.65,1.91,3,2.72,4.5s1.78,1.73,3.13.87c2.65-1.7,5.33-3.35,8.08-5.07-1-1.66-1.87-3.19-2.79-4.7-.63-1-1.52-1.53-2.56-.91C271.09,597.33,268.31,599.1,265.34,601Zm-14,8.46c3.07,6.74,3.11,6.75,8.63,3.37l.88-.51c3.5-2.06,3.5-2.06,1.25-5.52-.19-.3-.4-.59-.59-.89-.87-1.47-1.85-1.86-3.33-.82C256,606.56,253.73,607.9,251.35,609.41Zm86.93,14c-3.27,1.55-10,6.38-11.06,7.89,2.12,4.35,2.12,4.35,6,1.87a14.94,14.94,0,0,0,1.5-1c2.09-1.69,4.71-2.63,6.34-5.14Zm-89.13-5.3c.09-1.26-2.66-5.2-3.74-5-2.83.49-5.2,2.23-7.58,3.87-.17.11-.24.48-.26.73-.06.91,3,5.09,3.77,5.21.63.1,7.44-3.68,7.69-4.27A4.54,4.54,0,0,0,249.15,618.11Zm-17.81,2c-1.26.66-2.47,1.27-3.66,1.91-4.2,2.28-4.13,2.23-1.36,6.5,1,1.56,1.9,1.69,3.28.74,1.19-.83,2.54-1.39,3.74-2.21.81-.55,2.48-.74,1.72-2.4C234.23,622.87,233.36,620.92,231.34,620.15Zm89.93,14.21c-2.94,2-5.49,3.91-8.25,5.42-2.26,1.24-1.34,2.52-.63,4.14.85,1.94,1.92,1.61,3.23.71s2.62-1.63,3.86-2.56c1.6-1.21,3.65-1.83,4.66-4C323.19,636.83,322.28,635.66,321.27,634.36Zm-15.84,10.26c-2.51,1.54-4.9,3-7.32,4.47-1.95,1.16-2.22,2.52-.59,4.24.47.5.74,1.24,1.61,1.48,1.92-1.21,3.95-2.46,5.95-3.76C308.52,648.81,308.58,648.05,305.43,644.62ZM211,630.54c.9,1.54,1.55,2.68,2.22,3.8.45.74.73,1.69,1.75,1.76s6.47-2.63,6.63-3.43c.51-2.51-1.61-3.55-2.6-5.22-.08-.13-.28-.17-.57-.34Zm82,27.08c-2.47-4.34-2.47-4.33-6.09-2-1.22.78-2.47,1.51-3.71,2.27-.85.53-2,.89-1.24,2.4.68,1.35,1.41,3.3,3,2.56C287.88,661.56,290.83,660.19,293,657.62Zm-84.21-20a7.64,7.64,0,0,0-3-4c-.73-.42-6.17,1.88-6.56,2.79-.68,1.61.8,2.37,1.32,3.5.91,2,2.18,2.5,4,1.22a20.27,20.27,0,0,1,3-1.42A2,2,0,0,0,208.8,637.67Zm58.83,29.77c1,1.5,1.55,2.95,2.89,3.83,1.49-.84,3-1.66,4.43-2.52,4-2.36,4.05-2.78,1-6.42-.1-.13-.29-.16-.55-.3C272.89,663.72,269.94,664.83,267.63,667.44ZM186.82,641.6c1.55,5.26,2.68,5.89,7,4.13l.46-.22c1-.5,2.8-.63,1.9-2.36s-1.37-4.38-3.86-3.85A30.72,30.72,0,0,0,186.82,641.6Zm67.51,32.23c.53,2.16,1.12,4.19,3.24,3.69a17.77,17.77,0,0,0,7.18-3.68c-.37-.7-.66-1.14-.87-1.64-1-2.33-2.32-2.77-4.35-1.37C257.92,671.94,256.16,672.78,254.33,673.83Zm-9.62,10.51c1.48-.75,2.92-1.46,4.34-2.2,2.55-1.33,2.67-2.38.63-4.53a2,2,0,0,0-2.7-.48c-1.25.71-2.56,1.31-3.78,2.07-.78.47-2.23.64-1.53,2.21A4.6,4.6,0,0,0,244.71,684.34Zm-60.52-35.49c-2-5.29-2.24-5.43-6.85-3.58a2.25,2.25,0,0,0-.24.08c-1,.42-2.41.9-1.66,2.34s1.43,4.32,3.67,3.68A12.44,12.44,0,0,0,184.19,648.85Zm44.42,37.36c2.27,4.44,6,4.86,9.14,1.25a1.42,1.42,0,0,0,.3-1.46c-.73-2.75-2.19-3.47-4.54-2.24C231.94,684.58,230.36,685.34,228.61,686.21Zm-65-35.43c2.18,4.79,2.85,5.19,6.45,3.77.94-.37,2.56-.59,2-2.18s-1.22-3.93-3.47-3.6A9,9,0,0,0,163.62,650.78Zm53.19,40.63c2.07,4.36,2.07,4.36,5.88,2.91.55-.21,1.1-.43,1.65-.62,1.91-.65,1.78-1.93.73-3.29s-2.2-1.91-3.76-1.12S218.42,690.66,216.81,691.41Zm-23.52,8.41c1.93,5.09,5.16,5.61,8.65,1.52-.51-.77-1-1.59-1.57-2.37s-1-1.64-1.76-1.07C197,699,195.1,698.87,193.29,699.82Zm11.83-3.62c.18.44.32.86.52,1.24.57,1.08,1,2.8,2.19,2.71a10.9,10.9,0,0,0,5.34-2.11c.42-.3.34-1,.2-1.54a3.31,3.31,0,0,0-4.14-2.36A13.34,13.34,0,0,0,205.12,696.2Zm-53.06-42a10.37,10.37,0,0,0,2.46,3.66c.75.69,5,.33,5.63-.58,1.09-1.59-.3-2.67-.93-3.82s-1.83-1.15-2.91-.81C155,653.06,153.65,653.61,152.06,654.19Zm-2.82,5.33c-1.44-3.55-2.87-4.44-5.82-3.66-1,.25-2.61.1-2.23,1.8s1.08,3.75,3.21,3.51A9.46,9.46,0,0,0,149.24,659.52Zm41.09,46.28c-1.19-3.59-4.74-4.81-7.52-2.77a1.22,1.22,0,0,0-.57,1.33c.27,1.95,2.2,3.51,4,3.06A11,11,0,0,0,190.33,705.8ZM137.49,662c-1.36-4.65-4.28-5.68-7.94-3C131.44,663.26,132.41,663.64,137.49,662Zm21.63,45.51c.92,3.87,4.06,5.49,7.14,3.91,1.33-.69,1.1-1.56.26-2.55C164.42,706.46,161.88,707.07,159.12,707.55ZM178.75,709c-.09-4.14-4-4.78-8-2.48C171.93,710.45,174.22,710.87,178.75,709Zm-61.08-49.52c1.47,3.68,3.7,4.26,8.29,3.32A5.47,5.47,0,0,0,117.67,659.44Zm16.5,45.86c.9,3.5,6,6.47,9.36,5.65C141.42,707,138.07,705.81,134.17,705.3ZM155.64,712c-1.26-3.33-4.71-5.1-7.38-3.89-1.22.55-.75,1.35-.21,2.15C149.6,712.54,152.09,713.15,155.64,712ZM104.3,655.93c1.11,3.68,4.87,5.86,9,5.42C112,658.94,110.6,658.05,104.3,655.93Z" transform="translate(-93.67 -361.5)"/><path class="cls-8" d="M325,683.76c.7,1.61-.47,2.26-.48,3.62,1.92,1.11,4.25,2.48,6.37,1.69s2.79-3.37,3.26-5.65c-.91-1.08-1.86-.56-2.73-.57-.58,0-1.23.12-1.47-.67s.3-1.16.74-1.58c2.49-2.39,5.07-4.05,8.61-2.55,2.64,1.12,5.56,1.18,8.22,2.4,1.59.73,2.19-.8,2.76-2,3.42-7.42,7.05-14.74,10.19-22.31,3.39-8.15,9.07-14.69,12.8-22.57.71-1.5,1.86-1.8,3.1-.6,1.58,1.54,3.58,2.68,4.36,5.12-1,.65-1.84.07-2.69-.11s-1.84-.54-2.7,0c-1.11.66-2.4,1.44-2.33,3s1.55,1.47,2.55,1.74c3.32.92,3.58.72,5.69-3.71a1.81,1.81,0,0,1,2.07,1.16c1.49,3.62,4.88,5,7.24,7.62.75.83,1.77,1.48,1.63,3.06-1.84.71-3.74.21-5.58-.08-4.89-.78-9.76-1.66-14.62-2.58a2.4,2.4,0,0,0-3.08,1.52q-6.86,15.25-13.76,30.48a9.06,9.06,0,0,0-.38,1.47c-.14.56,10.73,2.16,11.52,2.29,4.75.79,9.58,1.95,14.38,2.16,2.7.12,4.34-.8,5.56-3.5,3.3-7.29,6.81-14.45,9.85-21.88.51-1.26.56-3.48,2.71-2.55a3.79,3.79,0,0,1,1.56,5.08c-2.12,4.66-4.36,9.26-6.46,13.93-1.25,2.75-2.92,5.28-3.82,8.45,7.67,1.42,14.21-1.46,20.52-5.52.28.4.58.65.66,1a27.35,27.35,0,0,1,.4,7.52c-.21,6.65-3.15,10.67-8.48,13.1a46,46,0,0,1-15.1,3.73c-7.91.72-15.67-.74-23.48-1.8-16.57-2.25-32.64-6.95-48.75-11.46a4.5,4.5,0,0,1-2.92-2.36Zm17.4,8.73c1.23.08,3.67-3,3.68-5,0-2.16-1.63-1.17-2.58-1.47-.4-.13-.8-.22-1.21-.32-2.47-.64-4.71,1-5,3.94s2.12,2.08,3.52,2.56A10.28,10.28,0,0,0,342.38,692.49Zm11.07,2.86c1.73.16,4.4-2.5,4.26-4.76-.19-2.88-2.92-2-4.52-2.59-1.44-.56-4.13,2.55-3.92,4.72C349.54,695.49,352.2,694.39,353.45,695.35Zm7.43.9c5.11,2.19,8.35.24,8.54-5C364.21,689.45,362.23,690.56,360.88,696.25Zm20-3.22c-5.3-1.69-6.18-1.18-8.62,5C378.29,699.54,380,698.54,380.89,693Zm11.72-.09c-6.52-.66-5.75-1-8.48,5.51C388.52,700.48,390.75,699.08,392.61,692.94Zm3.17,5.17c3.65,1.28,8.17-2.33,8.71-6.94C399.79,691,397.62,692.76,395.78,698.11Z" transform="translate(-93.67 -361.5)"/><path class="cls-8" d="M303.15,391.93c-4-6.71-7.81-12.53-14-15.79-1.14-.6-1.35-1.58-.4-2.64.41-.45.86-.88,1.3-1.29,1.4-1.31,7.58-4.2,9-4.28,3.8-.21,7,1.37,9.95,3.83,5.33,4.5,9.19,10.31,12.46,16.67,8.71,16.93,14.35,35.14,19.09,53.76,1.72,6.76,3.84,13.41,4.81,21.07a143,143,0,0,1-11.37-8.9c.85-1.3,2.18-.84,3.17-1.75-.51-1.95-1-3.95-1.55-5.94a1.44,1.44,0,0,0-1.48-1.23c-1.73.11-3.51-.15-5.09.66-.54,1.9,1.67,3.15.58,5.39-3-1.79-6.55-2.58-7.46-7.11-.58-2.85-1.66-5.59-2.11-8.46s-2-3.22-4.29-3c-11.42,1.14-22.85,2.11-34.34,1.53-3.76-.19-7.52-.41-11.28-.49-1.86,0-2.61-1-2.39-2.9s.16-4.15,1.24-6a3.51,3.51,0,0,1,2.21,1.91c1.48,3.65,1.47,3.66,5.06,2.87.3-2.13-.8-3.87-1.54-5.65-.51-1.23-1.76-1.18-2.89-.95-.84.17-1.76.31-2.31-.55-.67-1,.05-1.92.54-2.73a17.07,17.07,0,0,1,1.62-2.08c.34-.41.8-.9.47-1.42-2.11-3.32.84-6,.64-9,1.84-.22,2.17,1.15,2.63,2.26a160.23,160.23,0,0,1,6.22,17c.55,1.93,1.42,3,3.36,2.91,10.12-.26,20.22-1,30.32-1.86a2.28,2.28,0,0,0,1.68-.71c0-1.92-1-3.59-1.5-5.39a160.67,160.67,0,0,0-8.63-22.16,3.54,3.54,0,0,0-3.73-2.44c-7.45.23-14.86.94-22.28,1.67a10.91,10.91,0,0,1-1.51.07c-1.18-.05-3,.45-3-1.33a3.41,3.41,0,0,1,3-3.75q5.63-.46,11.26-.87C294.53,392.53,298.6,392.25,303.15,391.93Zm18.36,28.52c1.63,7.38,2,7.68,7.76,6.14C330,420.76,327.28,418.56,321.51,420.45Zm4,12.83a16.88,16.88,0,0,0,1.15,4.64c.6,2.13,4.39,3.12,6,1.63a1.58,1.58,0,0,0,.47-1.18C333.17,433.07,330,430.91,325.47,433.28Zm-2.85-18.6c3.3-.11,3.5-.45,2.26-3.83a12.77,12.77,0,0,0-.7-1.75c-.75-1.35-5.52-1.79-6.36-.61a1.44,1.44,0,0,0-.24.72A5.21,5.21,0,0,0,322.62,414.68Zm-9.85-18.31c-.11,2.05,1.22,3.2,1.68,4.72s5,2.33,6.12,1.11a1.47,1.47,0,0,0,.32-.69c.42-2.17-2.17-5.61-4.2-5.53C315.45,396,314.23,396.22,312.77,396.37Zm-3.17-16.26c-1.43-4.67-5.36-6.6-10.25-5C302,378.6,304.46,382.39,309.6,380.11Zm6.36,10.6c-.62-2.31-1.42-4.68-3.58-5.48a4,4,0,0,0-4.79,1.07C309.58,391.57,310.8,392.23,316,390.71Z" transform="translate(-93.67 -361.5)"/><path class="cls-8" d="M156.4,637c-.76-1.64.17-2.41.74-3.22,2.32-3.24,2.34-3.22-.38-6.54-1.7.93-2.54,2.77-3.56,4.36-1.49,2.33,1.49,3.35,1.54,5.28-2.46,2-3.55,2.23-5.82.9-2.24,3.24-5.84,3.09-9.17,4.17a6.22,6.22,0,0,1,1.64-3.95c3.54-4.87,7.06-9.76,10.64-14.6,1-1.36,1.33-2.59.36-4.18q-8.71-14.25-17.35-28.56a3.91,3.91,0,0,0-.53-.55,5,5,0,0,0-2.21,2.17c-4.75,6.74-9.46,13.51-14.27,20.2-1.68,2.32-1.9,4.26-.24,6.84,4.24,6.58,8.21,13.36,12.28,20.06a8.71,8.71,0,0,1,1.65,3.9c-3.44,1.67-4.12,1.42-6.11-2q-5.46-9.21-11-18.37a11.88,11.88,0,0,0-.88-1.17c-.85-.06-1.15.47-1.38,1.09-2.29,6.15-5.39,12-4.79,19.06.15,1.79-.58,2.64-2.28,1.89a12.49,12.49,0,0,1-4.45-3c-.89-1-1.44-2.5-3.2-2.06-.65.16-1.09-.68-1.39-1.37A22.37,22.37,0,0,1,94.68,623a78.12,78.12,0,0,1,9.55-22.52c9.61-16,21.22-30.14,33.45-43.72,2.87-3.2,5.7-6.44,8.56-9.66a3.1,3.1,0,0,1,2.39-1.46c-.18,5-.73,9.84-1.35,14.63-1.18.21-1.57-.75-2.43-1-1.62,1.35-4,2.42-4.62,4.59-.66,2.35,1.67,3.84,2.74,5.59,1.91-.44,1.82-3.22,3.79-3.12a9.47,9.47,0,0,1-1,9.8c-2,2.43-4.05,4.89-6.19,7.2-1.39,1.5-1.43,2.79-.36,4.54,5.21,8.51,10.43,17,15.46,25.65,3.41,5.86,5.29,12.62,8.71,18.5a1.43,1.43,0,0,1-.35,2.14A26.24,26.24,0,0,1,156.4,637Zm-20.26-68.36c-1.78.65-2.59,2.1-3.58,3.29-1.77,2.09-1.49,3.65.92,6.19,1.86,1.94,2.69-.15,3.58-1.21,3.07-3.65,2.72-2.45.4-6.45A20.94,20.94,0,0,0,136.14,568.59ZM127.3,578c-1,1.21-1.74,2.15-2.47,3.13a5,5,0,0,0,.77,7.1,1.45,1.45,0,0,0,2.21-.08c3.14-2.93,3.32-4.13,1-7.92C128.35,579.61,127.91,579,127.3,578Zm-7.72,10.49c-4.36,3.56-4.53,5.91-.75,10.18C123.48,596.29,123.7,593.31,119.58,588.53Zm-7.37,21c4.41-5.69,4.4-6.66,0-10.91C107.92,604.82,107.76,602.58,112.21,609.57Zm-10.37,22.49c2.76-4.74,2.42-7.54-1.43-11.57C98.17,627.42,98.45,629.67,101.84,632.06ZM106,609.21c-3.76,4.26-3.52,8.19.47,10.33C109.89,614,110,615,106,609.21Z" transform="translate(-93.67 -361.5)"/><path class="cls-8" d="M258.26,689.86c.1-1.38,1.18-1.65,2.06-2.1,33.93-17.27,66.24-37.7,97.64-59.89,1.76-1.24,3.45-2.59,5.13-3.94,1.52-1.22,3-1.21,4.3.21s.71,2.73-.07,4.2c-13.83,26-34.06,43.87-59.5,54.67a100.26,100.26,0,0,1-33,7.48c-4.85.31-9.67,0-14.5.1C259.57,690.61,258.77,690.72,258.26,689.86Z" transform="translate(-93.67 -361.5)"/><path class="cls-8" d="M371.46,514.69c-1.29.16-2.06-.62-2.86-1.25-29.52-23.09-60.9-42.76-93.21-60.73-2.75-1.53-5.44-3.22-8.23-4.66-1.67-.86-2.44-1.9-2.05-4s1.9-2,3.29-1.94a110.67,110.67,0,0,1,93.14,53.21c3.14,5.28,6.61,10.34,9.27,16C371.29,512.3,372,513.29,371.46,514.69Z" transform="translate(-93.67 -361.5)"/><path class="cls-8" d="M175.78,494.38c1.35.81,1.16,1.88,1.06,3a806.36,806.36,0,0,0-2.47,99.53q.57,14.66,1.31,29.32a4.67,4.67,0,0,1-.84,3.59c-1.57,1.81-3.08,1.67-4.17-.5-10.62-21.19-16.59-43.68-15.58-68a130,130,0,0,1,15.27-57C172.13,501,173.93,497.76,175.78,494.38Z" transform="translate(-93.67 -361.5)"/><path class="cls-1" d="M257.61,566.05c0-5.66,0-11.33,0-17,0-2.63.6-3,2.65-1.74,9.21,5.72,18.4,11.49,27.62,17.19,1.65,1,1.39,2,.18,3.11a8.4,8.4,0,0,1-1.27.87q-12.63,8.12-25.26,16.22c-1,.63-2,1.74-3.18,1s-.69-2.32-.7-3.54c-.05-5.39,0-10.78,0-16.17Z" transform="translate(-93.67 -361.5)"/></svg>