<svg id="Layer_1" data-name="Layer 1" xmlns="http://www.w3.org/2000/svg" viewBox="0 0 1920 1080"><defs><style>.cls-1{fill:#0e8e4f;}.cls-2{fill:#0192dc;}.cls-3{fill:#0c8d4d;}.cls-4{fill:#0c0c0c;}.cls-5{fill:#060606;}.cls-6{fill:#93cead;}.cls-7{fill:#fdfcfd;}</style></defs><title>kennywood tv</title><path class="cls-1" d="M756.45,456.3H786l25.69,44.11,18.07-31c3-4,5.13-8.71,8-13.21h57.1c7.66,22.22,15.4,44.7,23.75,68.93l21-68.87h29.68l21.16,68.57L1014,456.66h30q-21.09,60.55-42.28,121.34H980.9q-12.79-40.63-25.62-81.37l-1.57-.35c-8.37,26.92-16.73,53.85-25.3,81.43h-21c-13.57-38.7-27.28-77.8-41.46-118.22l-27.61,47.76a63.6,63.6,0,0,1-3.57,6.23c-7.77,10.42-10.23,22-9.19,34.91.78,9.61.15,19.33.15,29.39H798.27c0-14-.07-27.92.05-41.85a16.85,16.85,0,0,0-2.48-9.26c-7.78-13.12-15.15-26.48-22.7-39.72-4.64-8.15-9.29-16.29-14.07-24.35-.87-1.47-2.39-2.55-3.61-3.82C756.68,458.31,756.45,457.26,756.45,456.3Z"/><path class="cls-1" d="M341.14,578.35c11.15-25.47,21.9-49.87,32.51-74.33q9.71-22.36,19-44.9a4.33,4.33,0,0,1,4.6-3c7.82,0,15.64,0,23.79,0,17.46,40.45,34.87,80.76,52.54,121.67H444.18c-3.59-8.39-7.3-17-11.05-25.81H382.2l-11.39,26.24c-19.77,0-39.35-.08-58.92.05-5.57,0-6.72-4.85-9.1-8-9.23-12-18-24.34-27-36.53a22.14,22.14,0,0,0-2.88-2.7c-4.8,3.41-7.66,8.27-11.82,12.64v34.06H234.23V456.42h26.94v48.83l45-48.92h34.35L292.41,510Zm52-50.9h29.84c-5-11.66-9.8-22.83-15-34.88-4.91,11.26-9.41,21.57-13.89,31.88C393.74,525.28,393.52,526.16,393.1,527.45Z"/><path class="cls-2" d="M1663.61,561.82c1.39-1.61.85-3.57.85-5.37,0-25.19,0-50.37.07-75.55,0-6.91-2.56-10.14-9.91-10.11-42,.18-83.92.09-126.31.09V448.71c1.64-.08,3.43-.22,5.22-.22q64.35,0,128.71,0a23.77,23.77,0,0,1,23.52,23.7q0,46.72,0,93.46c0,13.15-9.57,22.8-22.58,22.8q-56,0-111.92,0c-12.63,0-21.12-8.51-21.13-21.09V504.73H1498V482.41h93.56c6.34,14.81,12.74,29.8,19.71,46.1,6.56-16.24,12.62-31.26,18.68-46.28h19.63l-28.87,72.33h-19.94l-18.9-49.82h-30.57c.19,20.26-.33,40.58.31,61.35H1563l94,0c2.81,0,5.84.38,6.28-3.66C1663.67,562.35,1663.76,562.13,1663.61,561.82Z"/><path class="cls-1" d="M573.14,534.45V456.39h27.22V577.72h-28q-27.68-36.44-57-75v75H488.07V456.51h25.59Z"/><path class="cls-1" d="M715.65,531.32V456.5h27.16V577.76H715l-57.11-75.11v75.14H630.68V456.49h25.5l57.58,74.91,2,2.59Z"/><path class="cls-1" d="M1112.92,579.34c-37.09,1.08-64.16-29.66-63.94-62.74.25-35.74,26.55-63.67,65.61-63.54,36.73.12,63.6,29.34,63.54,63.88C1178.07,549.67,1150,581,1112.92,579.34Zm-35.09-62.82c.07,21.83,16.09,39,36.32,38.91s36.12-17.37,36.09-39.17-16-39.16-36.07-39.27C1093.87,476.88,1077.76,494.4,1077.83,516.52Z"/><path class="cls-1" d="M1257.15,579.34c-37.3,1.17-65.12-29.83-64-65.56,1-31.07,27.27-61.06,65.73-60.79,33.27.24,65.08,27,63.15,67.2C1320.61,550.8,1293.72,580.7,1257.15,579.34Zm37.1-63c0-22-15.56-39.15-35.83-39.4s-36.35,17.25-36.31,39.46c0,22,15.73,39,36.1,39S1294.22,538.4,1294.25,516.36Z"/><path class="cls-3" d="M1345.42,578.45V455.8c27.51,2.12,55.65-4.87,81.7,8.52,17.55,9,26.21,24.13,28.06,43.62,1.7,17.92-.88,34.6-12.48,49.07-8.53,10.63-20,16.17-33,19C1388.54,580.52,1367.19,576.85,1345.42,578.45Zm27.28-24.67c9.69-.22,19.12.86,28.51-1,17-3.39,26.52-15.07,27.09-33.28.64-20.62-7.7-33.33-24.92-37.87-10-2.65-20.23-1.74-30.68-1.74Z"/><path class="cls-4" d="M1515.05,654.25c2.22-7.28,4.39-14.42,6.59-21.62-3.79-1.69-4.06,5-7.65,2.52,4-8.63,9-10.62,16.72-6.36.32,1.36.68,2.91,1.19,5.07,5.43-6,11.1-9.85,19-5.32.29,2,.55,3.78.91,6.3,6.33-5.17,12.18-11.73,21.58-6,1.34,7.08-4,13-4,20.07,2.78-.35,4.36-3.85,7.41-1.83-3.58,6.95-9.42,8.38-16.74,6.86-2.77-7.32,2.6-13.66,2.66-21.72-10.84,4.19-13.45,13.33-17,22h-9.58c1.93-6.75,4.93-13.35,5.39-22.22-10.86,4.54-12.95,13.84-16.77,22.25Z"/><path class="cls-1" d="M1483,433.84l14.72-.86v-8.33c3.45-.56,6.49-1,9.56.38a15.38,15.38,0,0,1-.2,8.14l-8,.62v15h20.46v21.66H1498V449.1h-15.35V435.2C1482.78,434.75,1482.88,434.29,1483,433.84Z"/><path class="cls-5" d="M1283.45,654.15c14.17-13.07,22.89-29.75,35-44.68l7.2-.32v39.78l6.3,3.6c-8.44,3.94-16.47.68-25,2.53,3.4-5.73,12.19-7.66,7.36-16h-12.36c-2.23,2.68-5.29,5.26-4.69,9.81.66,1.83,4.62,1.65,3,5.24Zm31.47-33.31L1304.73,635h10.19Z"/><path class="cls-4" d="M1343.31,609.83h14.35c-1.88,6.28-3.7,12.33-5.75,19.18,2.43-.83,4.28-1.62,6.2-2.08,9-2.15,15.19,4.2,12.72,13.07-3.24,11.65-17.63,19.12-28.7,14.32-5.66-2.45-5.12-8.13-4.06-13.06.93-4.32,2.83-8.43,4.13-12.69s2.41-8.62,3.76-13.52C1345.93,613.34,1340,614.29,1343.31,609.83Zm16.81,22.95c-3.63-1.86-6.37-.94-8.18,1.81-3.33,5-6.49,10.26-4.6,16.61,4.15,2,7.24.78,9.29-2.16C1360.06,644.13,1362.56,638.81,1360.12,632.78Z"/><path class="cls-4" d="M1607.17,627.88h9.39c-2.17,7.43-4.25,14.51-6.28,21.46,3.84,1.9,3.45-4.17,7.07-2.26-1.72,5.75-5.85,8.4-11.56,8.42-4.61,0-5.69-3.28-5-8.06-5.28,4.36-9.46,10-17.39,7.29-1.86-7.93,3-14.85,4.23-22.37-4.11-1.25-4,4.89-8,2.85-.7-2.23,3-3.25,2.89-5.43,3.79-2.54,7.67-2.34,12.44-2,6.47,7.13-2.26,13.75-1.46,21.44C1601.68,644.16,1602.89,634.79,1607.17,627.88Z"/><path class="cls-4" d="M1383.84,632.24c-3.94-.68-4.39,4.31-8.08,3.51,1.87-8.21,7.92-8.68,15.48-7.94,6.23,7.16-2.56,13.78-1.63,21.3,8.45-4.87,9.44-14.46,13.86-21.35h9.31c-2.16,7.47-4.23,14.65-6.26,21.66,3.84,1.68,3.46-4.37,7.13-2.31-1.87,5.73-6,8.43-11.79,8.38-4.66,0-5.4-3.53-5-8.23-5.19,4.83-9.5,10.17-17.3,7.47C1377.83,646.72,1382.43,639.75,1383.84,632.24Z"/><path class="cls-4" d="M1454,651.29c.71-6.48,4.82-11.62,4.37-19.26-7.62,6.61-9.81,15-14,22.32h-9.23c2.25-7.37,4.44-14.56,6.63-21.72-3.76-2.85-3.85,5.24-7.52,2.43,4.41-8.58,9.67-10.71,16.11-6.14.17,1.59.35,3.39.66,6.53,4-4.37,7.07-8.91,12.89-8.86,2.06,0,3.76,1,5.62,2.89.32,6.9-4.36,13.15-4.47,20.47,2.7-.91,3.92-4.87,7.38-2.9C1468.33,655.16,1459.61,657.16,1454,651.29Z"/><path class="cls-4" d="M1510.13,626.89c-2.44,8.12-4.47,14.88-6.49,21.62,2.85,2,4.17-3.8,7.32-1-1.79,5.43-6,7.55-11.54,8-4,.35-4.89-2.41-5.59-6-2.27,1.72-4.12,3.51-6.3,4.71-2.61,1.42-5.94,2.65-8.17.09-2-2.3-4.1-5.26-2.42-8.93,1.88-4.11,2.41-8.59,5.56-12.43C1490.28,623.54,1500.62,630.17,1510.13,626.89Zm-12.85,3.85c-6.59,1.12-11.5,11.5-8.89,18.11C1494.38,647.24,1498.55,639,1497.28,630.74Z"/><path class="cls-4" d="M1626.37,645.69h6.49c.87,1.5,1.74,3,2.58,4.48-1.24,4.92-4.41,6-8.94,4.93-.74-1.23-1.55-2.59-2.59-4.31Z"/><path class="cls-4" d="M1650,655.07l-2.53-4.28,2.24-4.69a11.17,11.17,0,0,1,6.92-.17l2.36,4.38C1657.55,655.23,1654.34,656.2,1650,655.07Z"/><path class="cls-4" d="M1670.87,650.77l2.51-5h6.46l2.62,4.32c-1.13,5-4.26,6.09-8.9,5.08Z"/><path class="cls-1" d="M756.45,456.3c0,1,.23,2-1,2.48-.17-.49-.35-1-.66-1.82Z"/><path class="cls-6" d="M1483,433.84c-.11.45-.21.91-.32,1.36C1482,434.56,1482.09,434.11,1483,433.84Z"/><path class="cls-7" d="M1663.61,561.82c.15.31.06.53-.29.66A6.58,6.58,0,0,1,1663.61,561.82Z"/></svg>